#!OML:ASF Z:\Project 1\Capture day 1\Session 1\Male1.ASF
:FULLY-SPECIFIED
:DEGREES
1000
root 12.8579 16.4631 -3.77722 -163.37 -10.5145 177.75
lowerback -4.43024 -3.5685 -1.75003
upperback -1.79318 -4.77073 1.73276
thorax 0.923056 -2.40856 2.50044
lowerneck -22.6114 0.628822 0.906626
upperneck 4.71698 0.649559 3.8497
head 4.97844 0.836721 1.17205
rclavicle -2.22639e-014 -2.78299e-015
rhumerus 83.4869 6.23112 -65.2892
rradius 30.1046
rwrist 17.3828
rhand -50.5259 70.2512
rfingers 7.12502
rthumb -23.0938 41.6152
lclavicle -2.22639e-014 -2.78299e-015
lhumerus 88.0349 -3.77498 73.5949
lradius 14.3164
lwrist -45.7022
lhand -38.1178 72.6571
lfingers 7.12502
lthumb -11.1529 257.659
rfemur -21.2582 -8.0463 23.7222
rtibia 22.7585
rfoot -17.5146 -7.56891
rtoes 2.88302
lfemur 9.48217 0.334959 -14.614
ltibia 9.54316
lfoot 16.1885 19.78
ltoes 53.7088
1001
root 12.8537 16.4596 -3.7782 -163.477 -10.453 177.772
lowerback -4.5523 -3.55423 -1.64615
upperback -1.72659 -4.75185 1.6702
thorax 1.04485 -2.40003 2.36897
lowerneck -22.9846 0.59518 0.639556
upperneck 5.31953 0.593025 4.13923
head 5.22748 0.827804 1.30892
rclavicle 8.29926e-015 2.42517e-014
rhumerus 83.5107 6.07289 -64.7083
rradius 29.9734
rwrist 16.4596
rhand -49.7139 70.0006
rfingers 7.12502
rthumb -22.3145 41.2691
lclavicle 8.29926e-015 2.42517e-014
lhumerus 87.6308 -3.60642 57.5053
lradius 16.8898
lwrist -27.2047
lhand -40.0803 84.1532
lfingers 7.12502
lthumb -13.0452 246.275
rfemur -21.1396 -8.32969 23.8161
rtibia 22.6894
rfoot -17.3293 -7.90074
rtoes -0.607801
lfemur 9.39597 0.363085 -14.612
ltibia 9.93574
lfoot 15.9923 19.7941
ltoes 53.7955
1002
root 12.8487 16.4569 -3.77999 -163.598 -10.4506 177.806
lowerback -4.65703 -3.51161 -1.55176
upperback -1.66535 -4.69696 1.66677
thorax 1.15542 -2.37354 2.30708
lowerneck -22.9934 1.07746 0.446753
upperneck 5.492 0.384269 4.08114
head 5.28818 0.346577 1.26545
rclavicle 1.13804e-013 -5.56597e-015
rhumerus 83.4603 5.95606 -63.9136
rradius 29.9359
rwrist 15.3971
rhand -49.2703 69.8912
rfingers 7.12502
rthumb -21.8886 41.1093
lclavicle 1.13804e-013 -5.56597e-015
lhumerus 87.6797 -3.71561 60.0232
lradius 16.1343
lwrist -30.265
lhand -39.9618 81.8753
lfingers 7.12502
lthumb -12.9309 248.545
rfemur -20.9555 -8.38723 23.846
rtibia 22.5871
rfoot -17.2291 -7.9899
rtoes -1.30145
lfemur 9.28776 0.338504 -14.5907
ltibia 10.3863
lfoot 15.8815 19.7981
ltoes 54.0846
1003
root 12.8449 16.4553 -3.78213 -163.703 -10.4132 177.84
lowerback -4.77023 -3.45184 -1.47809
upperback -1.61919 -4.61872 1.64762
thorax 1.25449 -2.33524 2.24237
lowerneck -22.9335 0.968171 0.350784
upperneck 5.64712 0.276645 4.10517
head 5.33108 0.302432 1.27784
rclavicle 1.75924e-014 1.19271e-015
rhumerus 83.3205 5.88482 -63.1721
rradius 29.9939
rwrist 14.4904
rhand -48.9878 69.8101
rfingers 7.12502
rthumb -21.6173 40.9968
lclavicle 1.75924e-014 1.19271e-015
lhumerus 87.7063 -3.85148 62.5376
lradius 15.4301
lwrist -33.3454
lhand -39.4345 82.8413
lfingers 7.12502
lthumb -12.4226 247.548
rfemur -20.8068 -8.5451 23.9037
rtibia 22.4782
rfoot -17.1186 -8.00614
rtoes -2.08112
lfemur 9.21049 0.404353 -14.5563
ltibia 10.7834
lfoot 15.8307 19.6416
ltoes 52.9082
1004
root 12.8416 16.4573 -3.78329 -163.811 -10.3968 177.885
lowerback -4.84727 -3.46237 -1.42012
upperback -1.59281 -4.63542 1.67115
thorax 1.32279 -2.34435 2.22712
lowerneck -22.9679 0.942986 0.593623
upperneck 6.00468 0.203055 3.94775
head 5.45275 0.275907 1.18386
rclavicle -2.84759e-014 -3.18055e-015
rhumerus 83.2666 5.82565 -62.1628
rradius 30.0801
rwrist 13.2899
rhand -48.2438 69.7673
rfingers 7.12502
rthumb -20.9027 40.8735
lclavicle -2.84759e-014 -3.18055e-015
lhumerus 87.8621 -3.97111 72.8915
lradius 14.0245
lwrist -46.3591
lhand -37.1016 82.2475
lfingers 7.12502
lthumb -10.1726 248.018
rfemur -20.6686 -8.65742 23.9598
rtibia 22.4045
rfoot -17.0334 -8.0576
rtoes -3.10298
lfemur 9.18814 0.456957 -14.489
ltibia 11.0368
lfoot 15.7948 19.5799
ltoes 53.9636
1005
root 12.837 16.4576 -3.7825 -163.917 -10.4389 177.882
lowerback -4.93427 -3.52956 -1.39392
upperback -1.55736 -4.72484 1.67026
thorax 1.41005 -2.38957 2.19848
lowerneck -23.1013 0.541835 1.10382
upperneck 6.5559 0.298702 3.70161
head 5.64809 0.643004 1.06943
rclavicle 7.58364e-014 -9.54166e-015
rhumerus 83.2519 5.86873 -61.7244
rradius 29.9787
rwrist 12.6317
rhand -47.4126 70.1209
rfingers 7.12502
rthumb -20.1039 41.1411
lclavicle 7.58364e-014 -9.54166e-015
lhumerus 87.7806 -4.09511 80.1692
lradius 13.0768
lwrist -54.4123
lhand -37.134 81.1396
lfingers 7.12502
lthumb -10.2039 249.128
rfemur -20.5082 -8.63072 23.9408
rtibia 22.336
rfoot -16.8662 -8.3159
rtoes -4.43456
lfemur 9.17776 0.241275 -14.5216
ltibia 11.2477
lfoot 15.5598 19.9025
ltoes 53.2729
